<svg width="795" height="211" viewBox="0 0 795 211" fill="none" xmlns="http://www.w3.org/2000/svg">
<g clip-path="url(#clip0_10_370)">
<path d="M838.328 92.4852C808.113 72.4075 718.159 37.244 650.379 53.0906C565.655 72.8988 517.928 108.473 392.135 123.43C270.267 137.921 203.447 86.6433 129.082 93.5155C69.5894 99.0133 -10.6463 168.302 -43.3276 202.259" stroke="#9E8AEA" stroke-width="56.7241"/>
<path d="M-2.47417 171.709C-1.89749 172.307 -1.54761 172.978 -1.42454 173.722C-1.30102 174.457 -1.41928 175.216 -1.77932 175.998C-2.13419 176.775 -2.74108 177.531 -3.60001 178.266C-4.46929 179.009 -5.35067 179.54 -6.24414 179.857C-7.13717 180.164 -8.00729 180.305 -8.85451 180.278L-8.87563 178.391C-8.17604 178.392 -7.49346 178.282 -6.82791 178.062C-6.16708 177.837 -5.52621 177.458 -4.9053 176.927C-4.5017 176.582 -4.18847 176.207 -3.96558 175.802C-3.74743 175.392 -3.65326 174.98 -3.68308 174.567C-3.71763 174.15 -3.91216 173.757 -4.26667 173.39C-4.55501 173.091 -4.86312 172.894 -5.19101 172.799C-5.51889 172.703 -5.92359 172.71 -6.40511 172.818C-6.88145 172.921 -7.47984 173.137 -8.20027 173.467C-9.1637 173.898 -10.0292 174.2 -10.7967 174.373C-11.5642 174.547 -12.2571 174.563 -12.8755 174.421C-13.4935 174.27 -14.0577 173.93 -14.5682 173.4C-15.0976 172.851 -15.403 172.236 -15.4845 171.555C-15.5607 170.869 -15.4307 170.176 -15.0945 169.477C-14.7579 168.769 -14.2377 168.114 -13.534 167.512C-12.7578 166.848 -11.9784 166.374 -11.1956 166.089C-10.4128 165.804 -9.60471 165.663 -8.77122 165.666L-8.73965 167.49C-9.41989 167.499 -10.0459 167.619 -10.6176 167.848C-11.1841 168.074 -11.6899 168.376 -12.1349 168.757C-12.4971 169.067 -12.7784 169.397 -12.9788 169.747C-13.1792 170.097 -13.2726 170.441 -13.259 170.778C-13.2454 171.115 -13.0968 171.431 -12.8132 171.725C-12.5626 171.985 -12.2725 172.143 -11.9429 172.201C-11.608 172.255 -11.1815 172.207 -10.6633 172.059C-10.1447 171.902 -9.4797 171.642 -8.66837 171.279C-7.90745 170.932 -7.17079 170.678 -6.45842 170.516C-5.74087 170.349 -5.05354 170.347 -4.39642 170.509C-3.73414 170.667 -3.09339 171.067 -2.47417 171.709Z" fill="#FBFBF2"/>
<path d="M1.66122 160.987C1.22216 160.512 0.773487 160.212 0.315214 160.086C-0.137794 159.957 -0.600785 159.972 -1.07376 160.131C-1.54147 160.286 -2.01228 160.557 -2.4862 160.946L-3.79738 162.02L-0.0745697 166.048L1.26031 164.953C1.71843 164.578 2.06118 164.183 2.28856 163.768C2.51594 163.353 2.58839 162.916 2.50592 162.456C2.42345 161.997 2.14188 161.507 1.66122 160.987ZM3.57464 159.392C4.31874 160.197 4.74021 160.998 4.83904 161.796C4.94314 162.59 4.78259 163.367 4.35738 164.129C3.93218 164.89 3.30358 165.612 2.47158 166.294L1.1525 167.375L4.56335 171.065L2.73085 172.567L-6.83615 162.217L-3.81096 159.738C-2.44185 158.616 -1.123 158.005 0.145599 157.905C1.41484 157.797 2.55785 158.292 3.57464 159.392Z" fill="#FBFBF2"/>
<path d="M15.6823 157.85L11.7174 160.953L13.1892 164.1L11.2912 165.585L5.49482 152.256L7.81103 150.443L20.6767 158.239L18.6983 159.788L15.6823 157.85ZM10.8936 159.281L14.0784 156.788L7.83732 152.753L10.8936 159.281Z" fill="#FBFBF2"/>
<path d="M18.1239 142.251C18.8888 141.682 19.6144 141.299 20.3008 141.102C20.9882 140.896 21.7074 140.801 22.4584 140.819L22.412 142.683C21.8457 142.664 21.314 142.733 20.8167 142.891C20.3194 143.049 19.8522 143.291 19.4152 143.616C18.8525 144.034 18.4472 144.556 18.1995 145.181C17.9517 145.806 17.939 146.531 18.1614 147.357C18.3893 148.178 18.9298 149.097 19.7831 150.115C20.6188 151.111 21.4293 151.813 22.2144 152.22C22.9995 152.627 23.7456 152.792 24.4528 152.715C25.16 152.638 25.8087 152.38 26.3987 151.941C27.0051 151.49 27.429 151.023 27.6703 150.538C27.9072 150.049 28.078 149.57 28.1826 149.102L30.039 149.539C29.9552 150.169 29.731 150.827 29.3663 151.513C28.9972 152.194 28.3975 152.843 27.5671 153.461C26.611 154.172 25.5711 154.598 24.4475 154.739C23.3249 154.871 22.1923 154.684 21.0497 154.179C19.9126 153.669 18.832 152.804 17.8081 151.584C16.793 150.373 16.1643 149.185 15.922 148.018C15.6753 146.846 15.7523 145.764 16.1529 144.772C16.5491 143.774 17.2061 142.934 18.1239 142.251Z" fill="#FBFBF2"/>
<path d="M28.3472 137.419L30.9788 140.741L35.1576 137.806L36.2737 139.215L32.0949 142.15L34.866 145.648L39.9558 142.074L41.0719 143.483L34.0431 148.419L25.2921 137.371L32.2289 132.5L33.1277 134.061L28.3472 137.419Z" fill="#FBFBF2"/>
<path d="M58.7235 127.322C58.3638 126.801 57.9808 126.461 57.5745 126.303C57.1682 126.146 56.7492 126.119 56.3176 126.224C55.8822 126.323 55.4438 126.508 55.0024 126.778L53.2863 127.828L55.9259 131.652L57.5549 130.655C57.8452 130.478 58.1172 130.279 58.3708 130.06C58.6264 129.832 58.8288 129.581 58.9779 129.306C59.1232 129.026 59.1824 128.723 59.1555 128.397C59.1343 128.067 58.9904 127.709 58.7235 127.322ZM54.7056 122.452C54.3034 121.869 53.8265 121.567 53.275 121.546C52.7235 121.525 52.1051 121.724 51.4198 122.144L49.9738 123.028L52.2885 126.382L53.8565 125.423C54.5301 125.01 54.9455 124.565 55.1025 124.086C55.2556 123.602 55.1233 123.057 54.7056 122.452ZM60.8374 126.04C61.2822 126.685 61.5247 127.305 61.565 127.902C61.6015 128.494 61.4832 129.052 61.21 129.578C60.9427 130.1 60.567 130.585 60.083 131.033C59.599 131.481 59.0608 131.886 58.4684 132.248L54.9491 134.402L46.9434 122.803L50.2275 120.793C50.7908 120.448 51.3667 120.164 51.9551 119.939C52.5396 119.709 53.1154 119.58 53.6824 119.551C54.2553 119.52 54.7951 119.62 55.302 119.851C55.8051 120.078 56.2519 120.474 56.6425 121.04C56.979 121.527 57.1607 122.006 57.1875 122.476C57.2144 122.945 57.13 123.391 56.9343 123.814C56.7405 124.228 56.483 124.596 56.1616 124.921C56.6435 124.721 57.1613 124.592 57.7148 124.532C58.2702 124.463 58.8178 124.538 59.3576 124.758C59.9032 124.974 60.3965 125.401 60.8374 126.04Z" fill="#FBFBF2"/>
<path d="M66.2861 111.466L67.25 112.996L64.5933 114.48L70.1754 123.336L72.832 121.851L73.8014 123.389L66.402 127.525L65.4326 125.987L68.0893 124.502L62.5072 115.646L59.8505 117.131L58.8866 115.602L66.2861 111.466Z" fill="#FBFBF2"/>
<path d="M76.6229 108.282L82.6048 118.897L80.4853 119.956L74.5034 109.342L70.7212 111.231L69.7835 109.568L79.5589 104.683L80.2773 106.456L76.6229 108.282Z" fill="#FBFBF2"/>
<path d="M96.5103 108.266C96.8728 109.013 96.9982 109.763 96.8864 110.514C96.7779 111.257 96.4333 111.949 95.8527 112.591C95.2784 113.23 94.4721 113.773 93.4338 114.22C92.383 114.672 91.3862 114.915 90.4432 114.951C89.5036 114.977 88.6369 114.85 87.8432 114.569L88.4019 112.752C89.0638 112.964 89.7435 113.064 90.4411 113.052C91.1357 113.035 91.8583 112.865 92.6088 112.542C93.0967 112.332 93.5083 112.067 93.8435 111.745C94.1758 111.417 94.3911 111.05 94.4894 110.645C94.5848 110.234 94.5211 109.799 94.2983 109.339C94.117 108.965 93.8858 108.684 93.6046 108.494C93.3235 108.304 92.9385 108.188 92.4497 108.146C91.9671 108.102 91.3343 108.13 90.5512 108.23C89.5073 108.353 88.5955 108.382 87.8158 108.318C87.0361 108.253 86.3754 108.06 85.8336 107.737C85.295 107.406 84.8653 106.91 84.5444 106.248C84.2116 105.562 84.1112 104.88 84.2432 104.201C84.3814 103.52 84.7168 102.894 85.2494 102.325C85.7852 101.746 86.4785 101.274 87.3291 100.908C88.2673 100.505 89.1506 100.284 89.9789 100.246C90.8072 100.209 91.6154 100.316 92.4035 100.57L91.8739 102.33C91.2272 102.134 90.598 102.061 89.9864 102.109C89.3811 102.155 88.8095 102.293 88.2716 102.524C87.8338 102.713 87.4663 102.945 87.1692 103.221C86.8721 103.496 86.6783 103.798 86.5878 104.126C86.4973 104.453 86.5411 104.801 86.7194 105.169C86.8769 105.493 87.1028 105.733 87.3971 105.888C87.6976 106.04 88.1158 106.123 88.6517 106.137C89.1909 106.142 89.9001 106.092 90.7794 105.988C91.6059 105.884 92.3812 105.862 93.1052 105.921C93.8355 105.977 94.4867 106.182 95.0588 106.536C95.6373 106.886 96.1211 107.463 96.5103 108.266Z" fill="#FBFBF2"/>
<path d="M105.046 99.1704C104.81 98.5685 104.501 98.1283 104.122 97.8501C103.748 97.5696 103.314 97.422 102.818 97.4074C102.329 97.3906 101.795 97.483 101.217 97.6847L99.6156 98.2427L101.622 103.347L103.252 102.779C103.811 102.584 104.271 102.33 104.63 102.017C104.99 101.705 105.214 101.317 105.302 100.854C105.391 100.39 105.305 99.8294 105.046 99.1704ZM107.392 98.3312C107.793 99.3514 107.896 100.256 107.702 101.044C107.514 101.83 107.086 102.509 106.419 103.08C105.751 103.651 104.91 104.114 103.894 104.468L102.284 105.029L104.122 109.705L101.885 110.485L96.7281 97.3687L100.422 96.0812C102.093 95.4986 103.535 95.3816 104.747 95.7302C105.962 96.0702 106.844 96.9372 107.392 98.3312Z" fill="#FBFBF2"/>
<path d="M120.187 101.423L115.299 102.633L115.259 106.135L112.92 106.714L113.481 92.0621L116.337 91.3552L124.489 103.85L122.05 104.453L120.187 101.423ZM115.283 100.755L119.209 99.7829L115.364 93.489L115.283 100.755Z" fill="#FBFBF2"/>
<path d="M130.987 88.4514C131.933 88.3354 132.747 88.3624 133.431 88.5324C134.12 88.6948 134.777 88.9709 135.401 89.3608L134.376 90.968C133.908 90.6686 133.423 90.4641 132.92 90.3543C132.417 90.2445 131.895 90.2228 131.354 90.2891C130.658 90.3744 130.04 90.6285 129.501 91.0513C128.961 91.4741 128.567 92.102 128.318 92.935C128.076 93.7672 128.046 94.8409 128.228 96.156C128.406 97.4442 128.718 98.4621 129.165 99.2098C129.612 99.9574 130.155 100.474 130.792 100.759C131.429 101.045 132.113 101.143 132.843 101.053C133.593 100.961 134.198 100.763 134.658 100.46C135.116 100.15 135.514 99.8168 135.849 99.4602L137.185 100.768C136.781 101.277 136.243 101.74 135.573 102.159C134.901 102.57 134.052 102.839 133.025 102.965C131.842 103.11 130.739 102.964 129.717 102.527C128.7 102.082 127.843 101.354 127.147 100.342C126.457 99.3292 126.003 98.0337 125.785 96.4556C125.568 94.8909 125.666 93.538 126.079 92.3968C126.491 91.2489 127.128 90.3409 127.991 89.6727C128.853 88.9977 129.851 88.5906 130.987 88.4514Z" fill="#FBFBF2"/>
<path d="M143.291 89.6574L143.405 93.8942L148.51 93.7727L148.558 95.5695L143.453 95.6911L143.573 100.152L149.791 100.004L149.839 101.801L141.252 102.006L140.874 87.917L149.348 87.7153L149.131 89.5184L143.291 89.6574Z" fill="#FBFBF2"/>
<path d="M174.709 99.4978C174.794 98.8703 174.738 98.3699 174.541 97.9966C174.344 97.6232 174.049 97.3443 173.655 97.1598C173.262 96.9685 172.808 96.842 172.295 96.7802L170.297 96.54L169.673 101.145L171.569 101.373C171.907 101.413 172.245 101.427 172.584 101.412C172.93 101.392 173.252 101.321 173.55 101.2C173.849 101.071 174.1 100.871 174.301 100.601C174.51 100.331 174.645 99.9633 174.709 99.4978ZM175.012 93.2295C175.108 92.5278 174.956 91.9987 174.558 91.6423C174.16 91.2859 173.562 91.0597 172.764 90.9638L171.081 90.7614L170.533 94.7994L172.358 95.0188C173.143 95.1131 173.756 95.0223 174.199 94.7464C174.642 94.4638 174.914 93.9581 175.012 93.2295ZM177.161 99.8029C177.056 100.579 176.815 101.212 176.44 101.701C176.065 102.184 175.597 102.546 175.035 102.787C174.48 103.029 173.87 103.175 173.203 103.225C172.537 103.275 171.859 103.259 171.17 103.176L167.073 102.684L168.967 88.7176L172.79 89.1773C173.446 89.2561 174.07 89.3894 174.663 89.5773C175.256 89.7584 175.775 90.0127 176.218 90.3403C176.668 90.6687 177.004 91.0794 177.226 91.5723C177.449 92.0585 177.514 92.6423 177.421 93.3237C177.342 93.9107 177.152 94.3953 176.853 94.7776C176.554 95.1599 176.188 95.4552 175.754 95.6637C175.328 95.8661 174.885 95.9945 174.424 96.0489C174.92 96.1908 175.395 96.4091 175.85 96.7037C176.312 96.9924 176.671 97.3887 176.925 97.8924C177.187 98.3969 177.265 99.0338 177.161 99.8029Z" fill="#FBFBF2"/>
<path d="M191.485 92.0065L191.139 93.7806L188.14 93.261L186.132 103.535L189.131 104.054L188.782 105.839L180.43 104.391L180.779 102.607L183.778 103.127L185.785 92.853L182.786 92.3335L183.133 90.5594L191.485 92.0065Z" fill="#FBFBF2"/>
<path d="M201.253 95.9289L198.421 107.779L196.103 107.288L198.935 95.4379L194.798 94.5616L195.242 92.7041L205.933 94.9688L205.249 96.7756L201.253 95.9289Z" fill="#FBFBF2"/>
<path d="M215.623 107.631C215.409 108.433 215.009 109.098 214.424 109.623C213.848 110.144 213.123 110.486 212.248 110.649C211.379 110.814 210.395 110.766 209.296 110.505C208.183 110.241 207.25 109.844 206.496 109.316C205.751 108.782 205.165 108.171 204.736 107.482L206.373 106.38C206.745 106.937 207.205 107.417 207.753 107.82C208.302 108.216 208.974 108.508 209.769 108.697C210.286 108.82 210.78 108.853 211.253 108.797C211.728 108.735 212.137 108.574 212.482 108.313C212.828 108.045 213.068 107.665 213.2 107.171C213.307 106.77 213.315 106.412 213.223 106.096C213.131 105.781 212.91 105.462 212.559 105.141C212.215 104.822 211.707 104.47 211.034 104.087C210.145 103.568 209.419 103.053 208.859 102.542C208.298 102.032 207.914 101.49 207.709 100.916C207.511 100.338 207.507 99.6932 207.698 98.9829C207.895 98.2463 208.269 97.6497 208.821 97.1931C209.38 96.7381 210.054 96.4434 210.844 96.309C211.642 96.1697 212.492 96.2069 213.392 96.4207C214.386 96.6564 215.216 97.0038 215.882 97.4626C216.549 97.9215 217.103 98.4832 217.545 99.1477L215.968 100.221C215.597 99.6858 215.159 99.2566 214.654 98.9338C214.155 98.6126 213.621 98.3844 213.051 98.2492C212.587 98.1392 212.149 98.1051 211.736 98.1471C211.323 98.189 210.973 98.3123 210.686 98.5169C210.399 98.7216 210.202 99.0212 210.097 99.4158C210.004 99.7644 210.02 100.086 210.145 100.382C210.277 100.679 210.545 100.991 210.951 101.318C211.365 101.64 211.947 102.02 212.697 102.456C213.405 102.862 214.02 103.302 214.542 103.776C215.07 104.251 215.438 104.796 215.647 105.412C215.862 106.03 215.854 106.769 215.623 107.631Z" fill="#FBFBF2"/>
<path d="M227.66 104.797C227.837 104.174 227.855 103.646 227.717 103.211C227.585 102.778 227.322 102.421 226.928 102.139C226.541 101.859 226.05 101.645 225.455 101.495L223.811 101.082L222.315 106.358L223.989 106.779C224.564 106.923 225.093 106.965 225.577 106.905C226.061 106.844 226.481 106.648 226.837 106.316C227.193 105.984 227.467 105.478 227.66 104.797ZM230.082 105.384C229.783 106.439 229.313 107.237 228.672 107.777C228.037 108.319 227.274 108.643 226.381 108.749C225.488 108.854 224.52 108.775 223.476 108.513L221.822 108.097L220.452 112.932L218.154 112.354L221.998 98.7947L225.791 99.7482C227.508 100.18 228.753 100.868 229.525 101.813C230.305 102.753 230.491 103.943 230.082 105.384Z" fill="#FBFBF2"/>
<path d="M238.334 113.969L233.455 112.727L231.569 115.744L229.233 115.149L237.467 102.709L240.318 103.434L240.783 118.089L238.349 117.47L238.334 113.969ZM234.434 111.091L238.354 112.088L238.345 104.828L234.434 111.091Z" fill="#FBFBF2"/>
<path d="M253.13 106.361C254.056 106.59 254.802 106.905 255.368 107.304C255.943 107.699 256.443 108.187 256.867 108.769L255.272 109.889C254.957 109.446 254.588 109.085 254.165 108.805C253.741 108.525 253.265 108.319 252.737 108.188C252.056 108.02 251.38 108.035 250.71 108.233C250.04 108.432 249.423 108.871 248.858 109.552C248.3 110.234 247.843 111.215 247.486 112.493C247.136 113.746 247.019 114.797 247.135 115.646C247.251 116.495 247.548 117.164 248.026 117.654C248.504 118.144 249.1 118.477 249.814 118.654C250.547 118.836 251.188 118.868 251.737 118.752C252.287 118.629 252.789 118.462 253.244 118.252L253.961 119.933C253.382 120.26 252.698 120.497 251.908 120.645C251.119 120.786 250.223 120.733 249.218 120.484C248.062 120.197 247.096 119.671 246.321 118.904C245.554 118.132 245.049 117.155 244.807 115.974C244.571 114.794 244.668 113.436 245.096 111.902C245.521 110.38 246.154 109.166 246.993 108.259C247.835 107.346 248.79 106.734 249.859 106.424C250.929 106.107 252.02 106.086 253.13 106.361Z" fill="#FBFBF2"/>
<path d="M262.224 110.704L261.146 114.804L266.12 115.963L265.663 117.701L260.69 116.542L259.555 120.858L265.612 122.27L265.155 124.008L256.79 122.059L260.373 108.428L268.629 110.352L267.913 112.03L262.224 110.704Z" fill="#FBFBF2"/>
<path d="M289.298 124.805C289.428 124.185 289.408 123.683 289.238 123.298C289.068 122.914 288.792 122.617 288.412 122.408C288.033 122.192 287.589 122.037 287.08 121.943L285.102 121.577L284.151 126.125L286.029 126.473C286.364 126.535 286.701 126.57 287.04 126.577C287.387 126.579 287.714 126.529 288.02 126.427C288.328 126.318 288.593 126.135 288.813 125.878C289.04 125.622 289.202 125.265 289.298 124.805ZM290.047 118.578C290.191 117.885 290.078 117.348 289.705 116.968C289.333 116.587 288.751 116.324 287.961 116.177L286.295 115.868L285.461 119.857L287.269 120.192C288.045 120.336 288.664 120.285 289.126 120.038C289.589 119.784 289.896 119.298 290.047 118.578ZM291.726 125.265C291.566 126.031 291.281 126.647 290.871 127.111C290.463 127.568 289.969 127.899 289.391 128.103C288.82 128.309 288.199 128.416 287.53 128.423C286.861 128.431 286.185 128.371 285.502 128.245L281.445 127.493L284.328 113.697L288.114 114.399C288.763 114.519 289.378 114.692 289.956 114.917C290.537 115.135 291.037 115.421 291.456 115.776C291.883 116.132 292.189 116.562 292.375 117.068C292.563 117.566 292.587 118.152 292.446 118.825C292.325 119.405 292.101 119.876 291.775 120.238C291.449 120.6 291.063 120.871 290.615 121.051C290.175 121.225 289.723 121.325 289.259 121.35C289.744 121.523 290.203 121.771 290.637 122.093C291.078 122.41 291.408 122.828 291.627 123.346C291.852 123.866 291.885 124.505 291.726 125.265Z" fill="#FBFBF2"/>
<path d="M304.974 117.234L304.662 119.014L301.654 118.547L299.847 128.858L302.854 129.325L302.54 131.116L294.164 129.814L294.478 128.023L297.485 128.491L299.293 118.18L296.286 117.713L296.598 115.932L304.974 117.234Z" fill="#FBFBF2"/>
<path d="M314.095 120.354L312.437 132.424L310.085 132.138L311.743 120.067L307.546 119.556L307.806 117.664L318.654 118.985L318.151 120.848L314.095 120.354Z" fill="#FBFBF2"/>
<path d="M329.421 130.109C329.34 130.936 329.054 131.652 328.563 132.259C328.08 132.859 327.421 133.304 326.585 133.593C325.756 133.884 324.779 133.98 323.653 133.881C322.514 133.782 321.53 133.526 320.702 133.112C319.881 132.692 319.203 132.172 318.669 131.551L320.103 130.22C320.56 130.718 321.091 131.126 321.696 131.446C322.302 131.758 323.012 131.95 323.826 132.021C324.355 132.067 324.848 132.028 325.304 131.903C325.762 131.772 326.139 131.552 326.436 131.243C326.734 130.928 326.908 130.516 326.958 130.007C326.999 129.594 326.948 129.238 326.806 128.938C326.665 128.639 326.395 128.356 325.997 128.089C325.606 127.822 325.048 127.548 324.323 127.267C323.362 126.882 322.564 126.478 321.928 126.053C321.293 125.629 320.827 125.148 320.531 124.609C320.242 124.065 320.134 123.427 320.206 122.695C320.28 121.936 320.552 121.29 321.022 120.757C321.498 120.224 322.115 119.834 322.871 119.585C323.635 119.331 324.478 119.243 325.401 119.324C326.418 119.412 327.292 119.635 328.023 119.993C328.755 120.35 329.392 120.826 329.936 121.42L328.557 122.715C328.104 122.238 327.602 121.876 327.052 121.63C326.508 121.385 325.945 121.237 325.361 121.186C324.887 121.145 324.449 121.175 324.049 121.277C323.649 121.379 323.325 121.552 323.075 121.797C322.825 122.041 322.68 122.367 322.64 122.774C322.605 123.133 322.673 123.45 322.844 123.724C323.023 123.999 323.338 124.27 323.791 124.534C324.251 124.793 324.886 125.084 325.696 125.408C326.46 125.707 327.138 126.053 327.728 126.446C328.326 126.839 328.778 127.326 329.083 127.906C329.396 128.487 329.508 129.221 329.421 130.109Z" fill="#FBFBF2"/>
<path d="M340.131 125.045C340.169 124.4 340.073 123.876 339.844 123.476C339.621 123.076 339.287 122.776 338.842 122.576C338.404 122.376 337.878 122.261 337.266 122.229L335.573 122.142L335.257 127.618L336.98 127.706C337.572 127.736 338.097 127.675 338.556 127.521C339.015 127.367 339.382 127.093 339.657 126.698C339.933 126.303 340.091 125.752 340.131 125.045ZM342.621 125.152C342.558 126.247 342.272 127.122 341.764 127.778C341.262 128.434 340.587 128.9 339.739 129.177C338.891 129.454 337.93 129.565 336.855 129.51L335.152 129.422L334.862 134.439L332.496 134.317L333.31 120.247L337.216 120.447C338.984 120.538 340.347 120.973 341.304 121.751C342.269 122.523 342.708 123.657 342.621 125.152Z" fill="#FBFBF2"/>
<path d="M352.338 131.62L347.303 131.551L346.27 134.928L343.86 134.895L348.563 120.864L351.504 120.905L355.778 135.059L353.266 135.024L352.338 131.62ZM347.822 129.73L351.866 129.786L349.964 122.722L347.822 129.73Z" fill="#FBFBF2"/>
<path d="M363.348 120.534C364.301 120.512 365.107 120.62 365.767 120.857C366.433 121.087 367.055 121.428 367.632 121.878L366.433 123.376C366.002 123.031 365.543 122.779 365.055 122.62C364.568 122.461 364.052 122.387 363.507 122.399C362.806 122.415 362.164 122.607 361.581 122.974C360.998 123.341 360.536 123.927 360.195 124.731C359.861 125.536 359.711 126.601 359.745 127.929C359.777 129.229 359.974 130.273 360.335 131.062C360.695 131.85 361.176 132.418 361.777 132.766C362.379 133.113 363.047 133.279 363.782 133.262C364.538 133.245 365.161 133.109 365.651 132.853C366.142 132.59 366.574 132.297 366.947 131.976L368.128 133.41C367.669 133.877 367.084 134.285 366.371 134.634C365.657 134.977 364.783 135.16 363.749 135.184C362.558 135.21 361.478 134.955 360.511 134.419C359.551 133.875 358.781 133.065 358.202 131.988C357.63 130.911 357.324 129.576 357.284 127.984C357.244 126.405 357.493 125.068 358.03 123.973C358.568 122.871 359.303 122.031 360.235 121.451C361.166 120.865 362.204 120.559 363.348 120.534Z" fill="#FBFBF2"/>
<path d="M372.912 122.251L373.189 126.48L378.287 126.184L378.404 127.978L373.306 128.273L373.598 132.727L379.807 132.367L379.924 134.16L371.35 134.658L370.429 120.594L378.891 120.103L378.744 121.912L372.912 122.251Z" fill="#FBFBF2"/>
<path d="M403.843 127.577C403.755 126.95 403.565 126.48 403.273 126.166C402.982 125.853 402.62 125.654 402.189 125.571C401.757 125.48 401.284 125.467 400.771 125.531L398.775 125.78L399.421 130.382L401.316 130.145C401.654 130.103 401.985 130.035 402.308 129.939C402.638 129.837 402.93 129.691 403.185 129.501C403.439 129.305 403.627 129.051 403.749 128.741C403.877 128.43 403.908 128.042 403.843 127.577ZM402.434 121.444C402.336 120.743 402.046 120.268 401.564 120.02C401.082 119.771 400.442 119.696 399.645 119.796L397.963 120.005L398.53 124.041L400.354 123.813C401.138 123.715 401.706 123.48 402.06 123.107C402.412 122.727 402.537 122.173 402.434 121.444ZM406.297 127.281C406.406 128.057 406.345 128.726 406.115 129.29C405.884 129.847 405.53 130.31 405.052 130.678C404.581 131.045 404.031 131.334 403.4 131.543C402.769 131.752 402.109 131.899 401.42 131.985L397.326 132.495L395.364 118.539L399.185 118.062C399.84 117.981 400.48 117.959 401.104 117.998C401.727 118.03 402.298 118.151 402.816 118.361C403.34 118.57 403.776 118.886 404.124 119.309C404.472 119.726 404.693 120.274 404.789 120.955C404.871 121.542 404.82 122.056 404.634 122.498C404.449 122.939 404.175 123.313 403.812 123.619C403.456 123.917 403.062 124.148 402.631 124.312C403.149 124.329 403.668 124.426 404.188 124.601C404.713 124.769 405.167 125.066 405.55 125.491C405.94 125.916 406.189 126.513 406.297 127.281Z" fill="#FBFBF2"/>
<path d="M417.03 115.654L417.317 117.439L414.304 117.868L415.966 128.204L418.979 127.774L419.267 129.569L410.875 130.765L410.587 128.97L413.6 128.541L411.938 118.205L408.925 118.635L408.638 116.85L417.03 115.654Z" fill="#FBFBF2"/>
<path d="M426.753 116.068L428.928 128.056L426.588 128.432L424.413 116.444L420.239 117.116L419.898 115.237L430.687 113.501L430.786 115.419L426.753 116.068Z" fill="#FBFBF2"/>
<path d="M444.156 121.369C444.321 122.184 444.256 122.946 443.963 123.655C443.674 124.357 443.17 124.956 442.451 125.452C441.739 125.946 440.826 126.293 439.714 126.493C438.588 126.695 437.566 126.705 436.647 126.525C435.734 126.336 434.929 126.013 434.232 125.558L435.221 123.907C435.808 124.265 436.439 124.518 437.115 124.667C437.789 124.808 438.529 124.807 439.333 124.663C439.856 124.569 440.318 124.403 440.722 124.164C441.123 123.919 441.422 123.61 441.617 123.236C441.811 122.855 441.857 122.415 441.756 121.914C441.673 121.507 441.52 121.179 441.296 120.929C441.071 120.678 440.729 120.477 440.267 120.325C439.812 120.171 439.195 120.054 438.414 119.973C437.377 119.855 436.489 119.675 435.753 119.434C435.017 119.193 434.427 118.852 433.984 118.413C433.546 117.966 433.254 117.382 433.108 116.662C432.957 115.914 433.029 115.224 433.324 114.59C433.626 113.955 434.105 113.419 434.76 112.984C435.42 112.54 436.206 112.236 437.117 112.073C438.122 111.892 439.029 111.878 439.838 112.03C440.647 112.183 441.4 112.473 442.098 112.901L441.151 114.502C440.575 114.163 439.986 113.947 439.384 113.855C438.789 113.761 438.203 113.766 437.627 113.869C437.158 113.954 436.746 114.097 436.391 114.299C436.036 114.501 435.774 114.752 435.605 115.052C435.437 115.352 435.393 115.702 435.474 116.102C435.546 116.456 435.705 116.742 435.95 116.961C436.203 117.178 436.586 117.355 437.099 117.491C437.618 117.619 438.315 117.733 439.189 117.832C440.013 117.919 440.766 118.074 441.45 118.297C442.141 118.519 442.719 118.868 443.184 119.345C443.655 119.82 443.979 120.495 444.156 121.369Z" fill="#FBFBF2"/>
<path d="M453.822 113.683C453.679 113.052 453.441 112.572 453.108 112.243C452.782 111.913 452.376 111.707 451.89 111.624C451.41 111.54 450.87 111.558 450.269 111.679L448.607 112.013L449.819 117.361L451.511 117.021C452.092 116.905 452.583 116.716 452.984 116.455C453.386 116.193 453.665 115.839 453.821 115.391C453.978 114.943 453.978 114.374 453.822 113.683ZM456.26 113.172C456.503 114.241 456.469 115.154 456.159 115.911C455.855 116.666 455.331 117.281 454.588 117.757C453.844 118.233 452.945 118.577 451.89 118.788L450.218 119.124L451.328 124.025L449.006 124.491L445.891 110.746L449.726 109.976C451.462 109.627 452.901 109.709 454.043 110.223C455.19 110.728 455.929 111.711 456.26 113.172Z" fill="#FBFBF2"/>
<path d="M467.342 117.163L462.427 118.257L462.295 121.758L459.943 122.282L460.888 107.638L463.76 106.999L471.576 119.693L469.124 120.239L467.342 117.163ZM462.46 116.377L466.408 115.499L462.732 109.11L462.46 116.377Z" fill="#FBFBF2"/>
<path d="M475.169 104.024C476.095 103.798 476.909 103.729 477.611 103.817C478.318 103.897 479.007 104.093 479.679 104.405L478.868 106.116C478.364 105.875 477.855 105.729 477.34 105.68C476.825 105.63 476.303 105.67 475.774 105.799C475.093 105.965 474.511 106.289 474.03 106.771C473.548 107.253 473.238 107.92 473.099 108.774C472.966 109.626 473.076 110.692 473.428 111.972C473.773 113.226 474.216 114.196 474.758 114.884C475.3 115.571 475.907 116.019 476.578 116.226C477.249 116.434 477.942 116.451 478.656 116.276C479.39 116.097 479.967 115.831 480.384 115.477C480.8 115.116 481.152 114.739 481.439 114.347L482.938 115.484C482.603 116.035 482.129 116.557 481.516 117.05C480.901 117.536 480.092 117.902 479.086 118.147C477.929 118.429 476.813 118.414 475.739 118.102C474.669 117.781 473.722 117.161 472.897 116.241C472.079 115.32 471.459 114.091 471.037 112.555C470.618 111.032 470.539 109.682 470.801 108.504C471.061 107.32 471.577 106.346 472.348 105.584C473.118 104.815 474.058 104.295 475.169 104.024Z" fill="#FBFBF2"/>
<path d="M485.744 103.48L486.966 107.538L491.9 106.22L492.418 107.941L487.485 109.259L488.772 113.532L494.781 111.927L495.3 113.648L487.001 115.865L482.936 102.37L491.126 100.183L491.388 101.972L485.744 103.48Z" fill="#FBFBF2"/>
<path d="M516.393 103.154C516.184 102.557 515.906 102.13 515.557 101.875C515.208 101.62 514.813 101.489 514.371 101.484C513.927 101.472 513.458 101.542 512.964 101.696L511.042 102.291L512.576 106.678L514.4 106.112C514.725 106.012 515.038 105.886 515.339 105.736C515.644 105.577 515.904 105.383 516.119 105.152C516.332 104.915 516.468 104.634 516.527 104.31C516.593 103.983 516.549 103.598 516.393 103.154ZM513.81 97.405C513.577 96.7366 513.198 96.3233 512.674 96.1651C512.15 96.0069 511.505 96.0468 510.737 96.2847L509.118 96.7867L510.463 100.633L512.219 100.089C512.973 99.8551 513.488 99.5244 513.764 99.097C514.037 98.6631 514.053 98.0991 513.81 97.405ZM518.758 102.432C519.016 103.171 519.086 103.837 518.969 104.429C518.849 105.015 518.59 105.53 518.19 105.974C517.797 106.416 517.31 106.795 516.728 107.111C516.146 107.427 515.524 107.687 514.861 107.893L510.92 109.115L506.268 95.8108L509.946 94.6707C510.577 94.4752 511.204 94.3413 511.827 94.2691C512.448 94.1905 513.035 94.2082 513.587 94.3221C514.145 94.434 514.637 94.6662 515.063 95.0186C515.486 95.3645 515.812 95.862 516.039 96.5112C516.234 97.0703 516.283 97.5822 516.186 98.0468C516.089 98.5115 515.892 98.9254 515.593 99.2885C515.299 99.6433 514.956 99.9386 514.562 100.174C515.077 100.1 515.608 100.103 516.155 100.183C516.706 100.254 517.212 100.464 517.672 100.813C518.14 101.16 518.501 101.7 518.758 102.432Z" fill="#FBFBF2"/>
<path d="M526.727 89.2754L527.356 90.97L524.465 91.9218L528.11 101.735L531 100.783L531.633 102.487L523.582 105.139L522.949 103.434L525.84 102.483L522.195 92.6692L519.305 93.6211L518.675 91.9265L526.727 89.2754Z" fill="#FBFBF2"/>
<path d="M536.277 88.0297L540.693 99.3851L538.454 100.157L534.038 88.802L530.04 90.1802L529.348 88.4003L539.679 84.8382L540.139 86.698L536.277 88.0297Z" fill="#FBFBF2"/>
<path d="M555.267 90.0161C555.576 90.7869 555.65 91.5443 555.487 92.2884C555.328 93.024 554.937 93.694 554.315 94.2985C553.699 94.9007 552.859 95.3915 551.795 95.7709C550.717 96.1549 549.708 96.3341 548.766 96.3085C547.829 96.2742 546.974 96.0912 546.203 95.7594L546.884 93.9784C547.529 94.2325 548.199 94.3765 548.894 94.4104C549.587 94.4379 550.318 94.3145 551.088 94.0402C551.588 93.862 552.016 93.6227 552.372 93.3226C552.726 93.0161 552.965 92.6635 553.091 92.2648C553.214 91.8598 553.18 91.4204 552.99 90.9466C552.835 90.5612 552.624 90.2644 552.357 90.0563C552.09 89.8481 551.715 89.7074 551.231 89.6343C550.753 89.5589 550.121 89.5459 549.334 89.5951C548.286 89.6508 547.376 89.6213 546.604 89.5064C545.832 89.3915 545.187 89.1555 544.67 88.7982C544.156 88.4324 543.762 87.9083 543.488 87.226C543.204 86.5185 543.15 85.8297 543.328 85.1596C543.513 84.4872 543.89 83.8835 544.459 83.3483C545.032 82.8046 545.755 82.3773 546.627 82.0664C547.589 81.7236 548.484 81.56 549.312 81.5757C550.139 81.5914 550.937 81.7514 551.704 82.0556L551.056 83.7816C550.425 83.5441 549.804 83.4298 549.192 83.4385C548.586 83.445 548.007 83.5465 547.455 83.7431C547.006 83.9031 546.624 84.1114 546.31 84.368C545.995 84.6246 545.781 84.9138 545.669 85.2356C545.556 85.5574 545.576 85.9079 545.728 86.2869C545.863 86.6217 546.071 86.876 546.354 87.0498C546.643 87.2213 547.053 87.3313 547.586 87.3798C548.123 87.4197 548.833 87.4159 549.715 87.3686C550.546 87.3182 551.319 87.3459 552.036 87.4515C552.76 87.5548 553.394 87.8018 553.94 88.1923C554.492 88.5806 554.934 89.1886 555.267 90.0161Z" fill="#FBFBF2"/>
<path d="M563.272 81.0937C563.027 80.4949 562.713 80.0588 562.33 79.7853C561.953 79.5095 561.516 79.3673 561.02 79.3588C560.531 79.3479 559.998 79.4468 559.422 79.6554L557.828 80.2327L559.901 85.3098L561.524 84.7221C562.081 84.5204 562.538 84.2611 562.893 83.9442C563.249 83.6273 563.468 83.2369 563.55 82.7729C563.632 82.309 563.54 81.7492 563.272 81.0937ZM565.607 80.2263C566.022 81.2411 566.137 82.1436 565.953 82.9339C565.775 83.7218 565.356 84.4053 564.696 84.9844C564.036 85.5635 563.2 86.0362 562.189 86.4025L560.585 86.9833L562.485 91.6349L560.257 92.4417L554.928 79.3944L558.606 78.0625C560.27 77.4597 561.711 77.3252 562.927 77.6588C564.148 77.9838 565.041 78.8396 565.607 80.2263Z" fill="#FBFBF2"/>
<path d="M577.306 82.6625L572.571 84.3746L572.929 87.8476L570.663 88.6672L569.556 74.0925L572.322 73.0923L581.871 84.6143L579.508 85.4686L577.306 82.6625ZM572.341 82.5152L576.145 81.1399L571.595 75.3085L572.341 82.5152Z" fill="#FBFBF2"/>
<path d="M584.095 68.574C584.994 68.2555 585.798 68.104 586.507 68.1194C587.221 68.1263 587.93 68.2503 588.634 68.4913L588.016 70.2698C587.486 70.0821 586.962 69.99 586.444 69.9935C585.925 69.997 585.409 70.0898 584.895 70.2718C584.234 70.5062 583.69 70.8867 583.264 71.4134C582.837 71.9401 582.601 72.6335 582.557 73.4938C582.519 74.3517 582.746 75.3971 583.239 76.6299C583.722 77.8373 584.272 78.754 584.889 79.3799C585.505 80.0058 586.16 80.3873 586.852 80.5244C587.544 80.6615 588.237 80.6072 588.93 80.3614C589.642 80.1089 590.187 79.7858 590.565 79.3921C590.94 78.9921 591.249 78.583 591.492 78.1647L593.112 79.1385C592.839 79.7191 592.424 80.2848 591.867 80.8358C591.309 81.3804 590.541 81.8256 589.566 82.1715C588.443 82.5697 587.329 82.6688 586.223 82.469C585.121 82.2605 584.108 81.7427 583.184 80.9155C582.266 80.0861 581.511 78.9317 580.92 77.4524C580.333 75.9857 580.105 74.6554 580.236 73.4613C580.364 72.261 580.77 71.2435 581.455 70.4089C582.137 69.5679 583.017 68.9563 584.095 68.574Z" fill="#FBFBF2"/>
<path d="M594.652 67.0953L596.175 71.0507L601.007 69.4014L601.653 71.0788L596.82 72.7282L598.424 76.8933L604.31 74.8844L604.955 76.5618L596.827 79.3361L591.764 66.1832L599.786 63.4452L600.181 65.2084L594.652 67.0953Z" fill="#FBFBF2"/>
<path d="M626.527 65.5076C626.324 64.9075 626.05 64.4781 625.705 64.2192C625.359 63.9604 624.965 63.8259 624.524 63.8158C624.08 63.7992 623.611 63.865 623.115 64.0132L621.187 64.5894L622.671 68.9928L624.501 68.4459C624.827 68.3484 625.142 68.2261 625.444 68.0789C625.75 67.9234 626.012 67.7314 626.23 67.5031C626.445 67.2683 626.584 66.9888 626.647 66.6646C626.717 66.3384 626.677 65.9527 626.527 65.5076ZM624.008 59.7301C623.782 59.0591 623.408 58.6418 622.886 58.4782C622.364 58.3146 621.718 58.3478 620.949 58.5779L619.324 59.0633L620.626 62.9248L622.387 62.3984C623.144 62.1722 623.663 61.8468 623.943 61.422C624.221 60.9909 624.243 60.4269 624.008 59.7301ZM628.898 64.8095C629.148 65.5515 629.211 66.2179 629.087 66.8089C628.961 67.3935 628.696 67.906 628.291 68.3464C627.893 68.7849 627.402 69.1591 626.817 69.4688C626.232 69.7786 625.607 70.0329 624.942 70.2317L620.988 71.4132L616.487 58.0579L620.176 56.9553C620.808 56.7662 621.437 56.6388 622.061 56.573C622.683 56.5007 623.269 56.5244 623.819 56.6441C624.376 56.7618 624.865 56.999 625.287 57.3559C625.706 57.7063 626.026 58.2073 626.246 58.8589C626.435 59.4202 626.479 59.9328 626.376 60.3965C626.274 60.8603 626.072 61.2723 625.77 61.6325C625.472 61.9843 625.125 62.2761 624.729 62.508C625.245 62.4392 625.775 62.4475 626.321 62.533C626.871 62.61 627.375 62.8253 627.831 63.1788C628.294 63.5304 628.65 64.074 628.898 64.8095Z" fill="#FBFBF2"/>
<path d="M637.523 52.0321L638.055 53.7598L635.119 54.5613L638.2 64.566L641.136 63.7645L641.67 65.5019L633.493 67.7342L632.958 65.9968L635.894 65.1953L632.814 55.1906L629.878 55.9921L629.346 54.2645L637.523 52.0321Z" fill="#FBFBF2"/>
<path d="M648.245 51.2959L651.485 63.0411L649.183 63.604L645.943 51.8588L641.836 52.8633L641.328 51.0223L651.943 48.426L652.213 50.3253L648.245 51.2959Z" fill="#FBFBF2"/>
<path d="M667.629 55.7416C667.787 56.5571 667.717 57.3186 667.417 58.0264C667.123 58.7263 666.615 59.3215 665.892 59.8121C665.176 60.3015 664.261 60.6421 663.147 60.8339C662.02 61.0281 660.997 61.0314 660.08 60.844C659.169 60.6487 658.366 60.3206 657.674 59.8597L658.675 58.2159C659.259 58.5782 659.888 58.836 660.563 58.9892C661.236 59.1357 661.975 59.1397 662.78 59.001C663.304 58.9109 663.768 58.7481 664.173 58.5125C664.577 58.2704 664.877 57.963 665.076 57.5904C665.272 57.2112 665.322 56.7709 665.225 56.2696C665.146 55.8619 664.995 55.5322 664.773 55.2803C664.55 55.0285 664.209 54.8248 663.749 54.6692C663.295 54.5124 662.679 54.3907 661.899 54.3039C660.863 54.1785 659.977 53.9925 659.243 53.746C658.508 53.4995 657.921 53.155 657.482 52.7127C657.048 52.2625 656.76 51.6765 656.62 50.9547C656.475 50.2061 656.552 49.5159 656.853 48.8839C657.16 48.2509 657.642 47.7188 658.3 47.2877C658.964 46.8488 659.752 46.5508 660.665 46.3936C661.671 46.2203 662.578 46.2126 663.385 46.3706C664.193 46.5286 664.943 46.8241 665.638 47.2571L664.679 48.8521C664.106 48.5087 663.519 48.2886 662.917 48.1918C662.323 48.0939 661.737 48.0946 661.16 48.194C660.69 48.2749 660.277 48.4151 659.921 48.6146C659.564 48.8142 659.3 49.0633 659.13 49.3621C658.959 49.6609 658.912 50.0108 658.99 50.4118C659.059 50.7661 659.215 51.0534 659.459 51.2739C659.71 51.4932 660.092 51.6727 660.604 51.8124C661.122 51.9442 661.818 52.0627 662.691 52.1679C663.513 52.2611 664.266 52.4217 664.948 52.6495C665.637 52.8763 666.212 53.2297 666.673 53.7098C667.14 54.1888 667.459 54.8661 667.629 55.7416Z" fill="#FBFBF2"/>
<path d="M678.593 48.9429C678.53 48.2992 678.353 47.7953 678.064 47.4311C677.782 47.0663 677.405 46.8157 676.933 46.6794C676.468 46.5425 675.93 46.5008 675.32 46.5543L673.631 46.7023L674.17 52.16L675.89 52.0093C676.48 51.9576 676.99 51.824 677.42 51.6086C677.85 51.3932 678.171 51.0712 678.382 50.6427C678.592 50.2142 678.663 49.6476 678.593 48.9429ZM681.074 48.705C681.182 49.7958 681.035 50.7005 680.634 51.4191C680.24 52.1371 679.645 52.6916 678.849 53.0826C678.053 53.4736 677.119 53.716 676.047 53.81L674.348 53.9589L674.843 58.9593L672.482 59.1662L671.096 45.1409L674.992 44.7993C676.756 44.6447 678.172 44.8862 679.24 45.5237C680.315 46.1539 680.926 47.2144 681.074 48.705Z" fill="#FBFBF2"/>
<path d="M692.343 54.6775L687.309 54.7576L686.389 58.1633L683.979 58.2016L688.209 44.0389L691.15 43.9921L695.896 58.0121L693.384 58.0521L692.343 54.6775ZM687.766 52.922L691.81 52.8577L689.672 45.8542L687.766 52.922Z" fill="#FBFBF2"/>
<path d="M705.157 43.9869C706.11 44.0311 706.906 44.1941 707.545 44.476C708.192 44.7514 708.786 45.1333 709.326 45.6218L708.015 47.0332C707.612 46.6601 707.173 46.3774 706.699 46.185C706.225 45.9926 705.716 45.8838 705.172 45.8585C704.472 45.8261 703.816 45.9729 703.206 46.299C702.596 46.6251 702.09 47.1776 701.688 47.9563C701.292 48.7355 701.06 49.7879 700.991 51.1138C700.923 52.4125 701.038 53.4674 701.336 54.2787C701.635 55.09 702.07 55.6895 702.643 56.0774C703.216 56.4652 703.87 56.6761 704.604 56.7102C705.359 56.7452 705.991 56.6518 706.501 56.4301C707.01 56.2015 707.464 55.9397 707.861 55.6446L708.927 57.1561C708.434 57.5898 707.818 57.9566 707.08 58.2563C706.342 58.5492 705.456 58.6717 704.422 58.6238C703.232 58.5686 702.176 58.2401 701.253 57.6384C700.337 57.0302 699.632 56.1694 699.138 55.056C698.651 53.9429 698.449 52.5908 698.532 50.9998C698.614 49.4223 698.966 48.1062 699.587 47.0513C700.209 45.9896 701.007 45.2019 701.981 44.6882C702.956 44.1677 704.015 43.9339 705.157 43.9869Z" fill="#FBFBF2"/>
<path d="M716.434 46.8849L715.952 51.0958L721.032 51.6113L720.828 53.3971L715.748 52.8816L715.24 57.3156L721.428 57.9436L721.224 59.7294L712.679 58.8622L714.281 44.8599L722.714 45.7157L722.246 47.4747L716.434 46.8849Z" fill="#FBFBF2"/>
<path d="M746.143 59.6416C746.28 59.0233 746.266 58.5211 746.1 58.1349C745.935 57.7486 745.663 57.4491 745.285 57.2362C744.908 57.0166 744.466 56.857 743.958 56.7574L741.984 56.37L740.98 60.9071L742.854 61.2748C743.188 61.3404 743.524 61.3787 743.864 61.3897C744.211 61.3954 744.538 61.3487 744.846 61.2495C745.155 61.1437 745.422 60.9636 745.645 60.7092C745.876 60.4562 746.042 60.1003 746.143 59.6416ZM746.965 53.4247C747.118 52.7334 747.01 52.1955 746.642 51.8112C746.274 51.4268 745.696 51.1573 744.907 51.0026L743.244 50.6762L742.363 54.6549L744.167 55.0088C744.942 55.1609 745.562 55.116 746.027 54.8743C746.493 54.6259 746.806 54.1427 746.965 53.4247ZM748.566 60.1274C748.397 60.8919 748.105 61.5039 747.689 61.9634C747.275 62.4163 746.778 62.7419 746.197 62.9401C745.624 63.1396 745.002 63.2396 744.333 63.2401C743.663 63.2405 742.988 63.1739 742.306 63.0402L738.257 62.2459L741.302 48.485L745.081 49.2263C745.729 49.3534 746.341 49.5325 746.917 49.7635C747.495 49.9878 747.992 50.2795 748.407 50.6384C748.829 50.9987 749.131 51.4324 749.311 51.9395C749.493 52.44 749.51 53.0259 749.362 53.6973C749.234 54.2757 749.004 54.744 748.674 55.1024C748.344 55.4607 747.954 55.7275 747.504 55.9028C747.062 56.0727 746.609 56.1676 746.144 56.1875C746.628 56.3655 747.084 56.6181 747.514 56.9452C747.951 57.2669 748.276 57.6879 748.489 58.2082C748.708 58.7298 748.734 59.3695 748.566 60.1274Z" fill="#FBFBF2"/>
<path d="M763.339 53.2522L762.869 54.9978L759.909 54.2918L757.189 64.4006L760.15 65.1067L759.678 66.8622L751.432 64.8957L751.904 63.1402L754.865 63.8462L757.584 53.7374L754.624 53.0314L755.093 51.2857L763.339 53.2522Z" fill="#FBFBF2"/>
<path d="M773.042 57.8198L769.388 69.443L767.106 68.8069L770.759 57.1837L766.687 56.0485L767.259 54.2266L777.786 57.1604L776.977 58.9165L773.042 57.8198Z" fill="#FBFBF2"/>
<path d="M787.15 70.6753C786.87 71.4571 786.416 72.0873 785.788 72.5659C785.17 73.0401 784.417 73.3252 783.529 73.421C782.648 73.5189 781.669 73.3964 780.592 73.0535C779.502 72.7065 778.603 72.2416 777.894 71.6588C777.194 71.0717 776.658 70.4192 776.287 69.7012L778.013 68.7299C778.339 69.3121 778.759 69.8242 779.273 70.2662C779.788 70.7018 780.436 71.0436 781.214 71.2915C781.72 71.4526 782.212 71.5234 782.689 71.5039C783.168 71.478 783.59 71.3483 783.956 71.1149C784.324 70.8751 784.595 70.5149 784.767 70.0343C784.908 69.6434 784.945 69.2876 784.879 68.9668C784.814 68.646 784.619 68.3126 784.295 67.9667C783.978 67.6228 783.499 67.2347 782.859 66.8024C782.013 66.2189 781.331 65.6518 780.813 65.1013C780.295 64.5508 779.957 63.9825 779.799 63.3966C779.649 62.8063 779.699 62.1651 779.947 61.4731C780.205 60.7554 780.628 60.1904 781.217 59.7782C781.813 59.368 782.511 59.1261 783.311 59.0523C784.12 58.9743 784.965 59.0757 785.847 59.3567C786.821 59.6665 787.621 60.0749 788.249 60.5818C788.876 61.0887 789.383 61.6894 789.77 62.3838L788.107 63.3322C787.78 62.7713 787.378 62.3112 786.9 61.9518C786.428 61.5945 785.913 61.3271 785.355 61.1494C784.901 61.0048 784.466 60.9377 784.05 60.9481C783.635 60.9585 783.275 61.0546 782.971 61.2363C782.667 61.418 782.446 61.7011 782.308 62.0856C782.186 62.4252 782.175 62.7467 782.276 63.0502C782.383 63.3556 782.626 63.6864 783.004 64.0425C783.391 64.3942 783.941 64.8156 784.654 65.3068C785.328 65.7643 785.906 66.2483 786.388 66.7587C786.876 67.2713 787.199 67.8418 787.357 68.4703C787.521 69.1009 787.452 69.8359 787.15 70.6753Z" fill="#FBFBF2"/>
<path d="M799.68 69.0544C799.922 68.4546 799.998 67.9323 799.906 67.4876C799.82 67.0451 799.596 66.6649 799.233 66.347C798.876 66.0314 798.409 65.7703 797.832 65.5638L796.236 64.9923L794.183 70.0777L795.808 70.6595C796.365 70.8591 796.889 70.9526 797.378 70.9399C797.867 70.9272 798.307 70.774 798.697 70.4801C799.087 70.1862 799.415 69.7109 799.68 69.0544ZM802.034 69.8754C801.624 70.8918 801.07 71.6365 800.372 72.1095C799.682 72.5848 798.885 72.8308 797.983 72.8475C797.082 72.8643 796.124 72.6914 795.111 72.3288L793.506 71.7539L791.624 76.4131L789.394 75.6145L794.671 62.5459L798.353 63.8643C800.02 64.461 801.188 65.2658 801.857 66.2787C802.536 67.2875 802.595 68.4864 802.034 69.8754Z" fill="#FBFBF2"/>
</g>
<defs>
<clipPath id="clip0_10_370">
<rect width="795" height="211" fill="white"/>
</clipPath>
</defs>
</svg>
