<svg width="512" height="512" viewBox="0 0 512 512" fill="none" xmlns="http://www.w3.org/2000/svg">
<rect width="512" height="512" fill="black"/>
<g filter="url(#filter0_d_1799_172)">
<path d="M92.7316 238.648C92.7316 226.3 102.56 216.472 114.908 216.472C127.004 216.472 137.084 226.3 137.084 238.648C137.084 250.744 127.004 260.572 114.908 260.572C102.56 260.572 92.7316 250.744 92.7316 238.648ZM92.7316 326.596C92.7316 314.248 102.56 304.42 114.908 304.42C127.004 304.42 137.084 314.248 137.084 326.596C137.084 338.692 127.004 348.52 114.908 348.52C102.56 348.52 92.7316 338.692 92.7316 326.596ZM206.299 290.56C206.299 305.176 217.639 318.28 232.759 318.28C247.879 318.28 259.219 305.176 259.219 290.56C259.219 275.944 247.879 262.84 232.759 262.84C217.639 262.84 206.299 275.944 206.299 290.56ZM206.299 346H168.499V157H206.299V248.476C216.127 236.38 229.987 232.348 244.351 232.348C275.851 232.348 299.539 259.816 299.539 290.56C299.539 321.304 275.851 348.52 244.351 348.52C229.987 348.52 213.859 343.984 206.299 332.644V346ZM426.354 268.636H389.31C388.05 258.556 378.726 255.784 371.418 255.784C364.11 255.784 356.298 259.564 356.298 266.116C356.298 281.74 428.118 265.864 428.118 312.736C428.118 338.944 405.69 348.52 373.434 348.52C340.422 348.52 315.474 336.172 313.458 304.672H351.006C351.006 321.304 365.874 322.312 374.19 322.312C382.758 322.312 390.066 319.036 390.066 312.988C390.066 289.552 318.246 307.948 318.246 267.628C318.246 244.948 335.634 232.348 372.426 232.348C401.658 232.348 423.078 243.184 426.354 268.636Z" fill="white"/>
</g>
<defs>
<filter id="filter0_d_1799_172" x="89.7324" y="155" width="347.385" height="203.52" filterUnits="userSpaceOnUse" color-interpolation-filters="sRGB">
<feFlood flood-opacity="0" result="BackgroundImageFix"/>
<feColorMatrix in="SourceAlpha" type="matrix" values="0 0 0 0 0 0 0 0 0 0 0 0 0 0 0 0 0 0 127 0" result="hardAlpha"/>
<feOffset dx="3" dy="4"/>
<feGaussianBlur stdDeviation="3"/>
<feComposite in2="hardAlpha" operator="out"/>
<feColorMatrix type="matrix" values="0 0 0 0 0 0 0 0 0 0 0 0 0 0 0 0 0 0 0.25 0"/>
<feBlend mode="normal" in2="BackgroundImageFix" result="effect1_dropShadow_1799_172"/>
<feBlend mode="normal" in="SourceGraphic" in2="effect1_dropShadow_1799_172" result="shape"/>
</filter>
</defs>
</svg>
